#N canvas 389 113 873 709 10;
#X obj 38 192 *~;
#X floatatom 738 72 0 0 0 0 - - -;
#X floatatom 700 72 0 0 0 0 - - -;
#X floatatom 776 71 0 0 0 0 - - -;
#X obj 700 45 ctlin;
#N canvas 0 22 450 300 (subpatch) 0;
#X array pulsemon 2000 float 2;
#X coords 0 1 2000 -1 200 140 1;
#X restore 27 420 graph;
#X obj 232 497 tgl 15 0 empty empty empty 17 7 0 10 -262144 -1 -1 0
1;
#X obj 232 542 tabwrite~ pulsemon;
#N canvas 0 22 395 347 sqrOsc 0;
#X obj 140 38 inlet;
#X text 138 20 frequency;
#X obj 141 242 clip~ -1 1;
#X obj 140 91 *;
#X obj 141 211 *~ 5;
#X obj 141 113 * 1000;
#X obj 141 134 + 10;
#X text 174 90 exponential response;
#X text 193 113 scaling;
#X text 183 134 offset;
#X obj 141 278 outlet~;
#X obj 141 181 osc~ 440;
#X connect 0 0 3 0;
#X connect 0 0 3 1;
#X connect 2 0 10 0;
#X connect 3 0 5 0;
#X connect 4 0 2 0;
#X connect 5 0 6 0;
#X connect 6 0 11 0;
#X connect 11 0 4 0;
#X restore 37 110 pd sqrOsc;
#N canvas 87 136 479 367 sqrLfo 0;
#X obj 158 110 osc~;
#X obj 27 62 * 25;
#X obj 57 151 sel 0;
#X obj 12 183 sig~ 1;
#X obj 158 130 *~ 1e+09;
#X obj 158 150 clip~ 0 1;
#X obj 152 250 *~ -1;
#N canvas 184 376 262 240 sigSel 0;
#X obj 66 163 *~;
#X obj 156 165 *~;
#X obj 84 144 lop~ 10;
#X obj 174 146 lop~ 10;
#X msg 144 69 0 1;
#X msg 108 69 1 0;
#X obj 108 90 unpack f f;
#X obj 178 121 tgl 15 0 empty empty empty 17 7 0 10 -262144 -1 -1 0
1;
#X obj 160 121 tgl 15 0 empty empty empty 17 7 0 10 -262144 -1 -1 0
1;
#X obj 105 121 sig~ 1;
#X obj 202 122 sig~ 0;
#X obj 13 29 inlet~;
#X obj 65 29 inlet~;
#X obj 124 29 inlet;
#X obj 173 29 inlet;
#X text 9 9 sig1;
#X text 62 9 sig2;
#X text 120 8 sel1;
#X text 172 8 sel2;
#X obj 98 205 outlet~;
#X connect 0 0 19 0;
#X connect 1 0 19 0;
#X connect 2 0 0 1;
#X connect 3 0 1 1;
#X connect 4 0 6 0;
#X connect 5 0 6 0;
#X connect 6 0 8 0;
#X connect 6 0 9 0;
#X connect 6 1 7 0;
#X connect 6 1 10 0;
#X connect 9 0 2 0;
#X connect 10 0 3 0;
#X connect 11 0 0 0;
#X connect 12 0 1 0;
#X connect 13 0 5 0;
#X connect 14 0 4 0;
#X restore 65 221 pd sigSel;
#N canvas 184 376 262 240 sigSel 0;
#X obj 66 163 *~;
#X obj 156 165 *~;
#X obj 84 144 lop~ 10;
#X obj 174 146 lop~ 10;
#X msg 144 69 0 1;
#X msg 108 69 1 0;
#X obj 108 90 unpack f f;
#X obj 178 121 tgl 15 0 empty empty empty 17 7 0 10 -262144 -1 -1 0
1;
#X obj 160 121 tgl 15 0 empty empty empty 17 7 0 10 -262144 -1 -1 0
1;
#X obj 105 121 sig~ 1;
#X obj 202 122 sig~ 0;
#X obj 13 29 inlet~;
#X obj 65 29 inlet~;
#X obj 124 29 inlet;
#X obj 173 29 inlet;
#X text 9 9 sig1;
#X text 62 9 sig2;
#X text 120 8 sel1;
#X text 172 8 sel2;
#X obj 98 205 outlet~;
#X connect 0 0 19 0;
#X connect 1 0 19 0;
#X connect 2 0 0 1;
#X connect 3 0 1 1;
#X connect 4 0 6 0;
#X connect 5 0 6 0;
#X connect 6 0 8 0;
#X connect 6 0 9 0;
#X connect 6 1 7 0;
#X connect 6 1 10 0;
#X connect 9 0 2 0;
#X connect 10 0 3 0;
#X connect 11 0 0 0;
#X connect 12 0 1 0;
#X connect 13 0 5 0;
#X connect 14 0 4 0;
#X restore 85 320 pd sigSel;
#X obj 410 251 tgl 15 0 empty empty empty 17 7 0 10 -262144 -1 -1 0
1;
#X obj 394 273 sel 0;
#X obj 152 274 +~ 1;
#X obj 411 62 inlet;
#X obj 27 28 inlet;
#X text 409 42 invert;
#X text 25 12 frequency;
#X text 64 62 scaling;
#X text 222 180 smooth to avoid clicks;
#X text 194 250 invert;
#X text 232 150 ctrl sig. has to be 0..1;
#X text 187 273 offset to 0..1;
#X obj 84 345 outlet~;
#X text 18 113 turn lfo off if;
#X text 18 127 the knob reads 0;
#X obj 158 180 lop~ 300;
#X floatatom 134 44 5 0 0 0 - - -;
#X connect 0 0 4 0;
#X connect 1 0 2 0;
#X connect 1 0 0 0;
#X connect 2 0 7 2;
#X connect 2 1 7 3;
#X connect 3 0 7 0;
#X connect 4 0 5 0;
#X connect 5 0 24 0;
#X connect 6 0 11 0;
#X connect 7 0 8 0;
#X connect 7 0 6 0;
#X connect 8 0 21 0;
#X connect 9 0 10 0;
#X connect 10 0 8 2;
#X connect 10 1 8 3;
#X connect 11 0 8 1;
#X connect 12 0 9 0;
#X connect 13 0 1 0;
#X connect 13 0 25 0;
#X connect 24 0 7 1;
#X restore 57 166 pd sqrLfo;
#X obj 37 85 r osc1freq;
#X obj 58 138 r lfo1freq;
#N canvas 236 468 886 243 xsessionIn 0;
#X obj 88 170 s osc1freq;
#X obj 98 151 s osc2freq;
#X obj 108 130 s osc3freq;
#X obj 117 110 s osc4freq;
#X obj 23 170 / 127;
#X obj 33 150 / 127;
#X obj 43 130 / 127;
#X obj 55 110 / 127;
#X obj 193 170 / 127;
#X obj 205 151 / 127;
#X obj 216 132 / 127;
#X obj 226 112 / 127;
#X obj 252 172 s lfo1freq;
#X obj 261 151 s lfo2freq;
#X obj 272 132 s lfo3freq;
#X obj 281 111 s lfo4freq;
#X obj 193 20 ctlin 26;
#X obj 205 41 ctlin 29;
#X obj 215 62 ctlin 36;
#X obj 226 83 ctlin 33;
#X obj 22 20 ctlin 12;
#X obj 34 41 ctlin 11;
#X obj 44 62 ctlin 14;
#X obj 55 83 ctlin 15;
#X obj 680 80 stripnote;
#X obj 680 33 notein;
#X obj 681 58 pack f f;
#X obj 677 203 s lfo1inv;
#X obj 686 183 s lfo2inv;
#X obj 698 164 s lfo3inv;
#X obj 707 144 s lfo4inv;
#X obj 371 178 / 127;
#X obj 380 159 / 127;
#X obj 391 140 / 127;
#X obj 401 120 / 127;
#X obj 358 199 / 127;
#X obj 417 201 s lopfreq;
#X obj 430 180 s lopq;
#X obj 436 159 s oddrive;
#X obj 447 140 s bp1freq;
#X obj 456 119 s bp2freq;
#X obj 358 6 ctlin 28;
#X obj 371 28 ctlin 25;
#X obj 380 49 ctlin 17;
#X obj 390 70 ctlin 35;
#X obj 401 91 ctlin 32;
#X obj 527 183 / 127;
#X obj 539 164 / 127;
#X obj 550 145 / 127;
#X obj 560 125 / 127;
#X obj 586 185 s ch1lvl;
#X obj 595 164 s ch2lvl;
#X obj 606 145 s ch3lvl;
#X obj 615 124 s ch4lvl;
#X obj 527 33 ctlin 24;
#X obj 539 54 ctlin 27;
#X obj 549 75 ctlin 34;
#X obj 560 96 ctlin 31;
#X obj 681 106 sel 46 43 56 57 70;
#X obj 795 162 s recCtrl;
#X connect 4 0 0 0;
#X connect 5 0 1 0;
#X connect 6 0 2 0;
#X connect 7 0 3 0;
#X connect 8 0 12 0;
#X connect 9 0 13 0;
#X connect 10 0 14 0;
#X connect 11 0 15 0;
#X connect 16 0 8 0;
#X connect 17 0 9 0;
#X connect 18 0 10 0;
#X connect 19 0 11 0;
#X connect 20 0 4 0;
#X connect 21 0 5 0;
#X connect 22 0 6 0;
#X connect 23 0 7 0;
#X connect 24 0 58 0;
#X connect 25 0 26 0;
#X connect 25 1 26 1;
#X connect 26 0 24 0;
#X connect 31 0 37 0;
#X connect 32 0 38 0;
#X connect 33 0 39 0;
#X connect 34 0 40 0;
#X connect 35 0 36 0;
#X connect 41 0 35 0;
#X connect 42 0 31 0;
#X connect 43 0 32 0;
#X connect 44 0 33 0;
#X connect 45 0 34 0;
#X connect 46 0 50 0;
#X connect 47 0 51 0;
#X connect 48 0 52 0;
#X connect 49 0 53 0;
#X connect 54 0 46 0;
#X connect 55 0 47 0;
#X connect 56 0 48 0;
#X connect 57 0 49 0;
#X connect 58 0 27 0;
#X connect 58 1 28 0;
#X connect 58 2 29 0;
#X connect 58 3 30 0;
#X connect 58 4 59 0;
#X restore 340 35 pd xsessionIn;
#X obj 141 138 r lfo1inv;
#X obj 227 189 *~;
#N canvas 0 22 450 300 sqrOsc 0;
#X obj 140 38 inlet;
#X text 138 20 frequency;
#X obj 141 242 clip~ -1 1;
#X obj 140 91 *;
#X obj 141 211 *~ 5;
#X obj 141 113 * 1000;
#X obj 141 134 + 10;
#X text 174 90 exponential response;
#X text 193 113 scaling;
#X text 183 134 offset;
#X obj 141 278 outlet~;
#X obj 141 181 osc~ 440;
#X connect 0 0 3 0;
#X connect 0 0 3 1;
#X connect 2 0 10 0;
#X connect 3 0 5 0;
#X connect 4 0 2 0;
#X connect 5 0 6 0;
#X connect 6 0 11 0;
#X connect 11 0 4 0;
#X restore 226 107 pd sqrOsc;
#N canvas 87 136 479 367 sqrLfo 0;
#X obj 158 110 osc~;
#X obj 27 62 * 25;
#X obj 57 151 sel 0;
#X obj 12 183 sig~ 1;
#X obj 158 130 *~ 1e+09;
#X obj 158 150 clip~ 0 1;
#X obj 152 250 *~ -1;
#N canvas 184 376 262 240 sigSel 0;
#X obj 66 163 *~;
#X obj 156 165 *~;
#X obj 84 144 lop~ 10;
#X obj 174 146 lop~ 10;
#X msg 144 69 0 1;
#X msg 108 69 1 0;
#X obj 108 90 unpack f f;
#X obj 178 121 tgl 15 0 empty empty empty 17 7 0 10 -262144 -1 -1 0
1;
#X obj 160 121 tgl 15 0 empty empty empty 17 7 0 10 -262144 -1 -1 0
1;
#X obj 105 121 sig~ 1;
#X obj 202 122 sig~ 0;
#X obj 13 29 inlet~;
#X obj 65 29 inlet~;
#X obj 124 29 inlet;
#X obj 173 29 inlet;
#X text 9 9 sig1;
#X text 62 9 sig2;
#X text 120 8 sel1;
#X text 172 8 sel2;
#X obj 98 205 outlet~;
#X connect 0 0 19 0;
#X connect 1 0 19 0;
#X connect 2 0 0 1;
#X connect 3 0 1 1;
#X connect 4 0 6 0;
#X connect 5 0 6 0;
#X connect 6 0 8 0;
#X connect 6 0 9 0;
#X connect 6 1 7 0;
#X connect 6 1 10 0;
#X connect 9 0 2 0;
#X connect 10 0 3 0;
#X connect 11 0 0 0;
#X connect 12 0 1 0;
#X connect 13 0 5 0;
#X connect 14 0 4 0;
#X restore 65 221 pd sigSel;
#N canvas 184 376 262 240 sigSel 0;
#X obj 66 163 *~;
#X obj 156 165 *~;
#X obj 84 144 lop~ 10;
#X obj 174 146 lop~ 10;
#X msg 144 69 0 1;
#X msg 108 69 1 0;
#X obj 108 90 unpack f f;
#X obj 178 121 tgl 15 0 empty empty empty 17 7 0 10 -262144 -1 -1 0
1;
#X obj 160 121 tgl 15 0 empty empty empty 17 7 0 10 -262144 -1 -1 0
1;
#X obj 105 121 sig~ 1;
#X obj 202 122 sig~ 0;
#X obj 13 29 inlet~;
#X obj 65 29 inlet~;
#X obj 124 29 inlet;
#X obj 173 29 inlet;
#X text 9 9 sig1;
#X text 62 9 sig2;
#X text 120 8 sel1;
#X text 172 8 sel2;
#X obj 98 205 outlet~;
#X connect 0 0 19 0;
#X connect 1 0 19 0;
#X connect 2 0 0 1;
#X connect 3 0 1 1;
#X connect 4 0 6 0;
#X connect 5 0 6 0;
#X connect 6 0 8 0;
#X connect 6 0 9 0;
#X connect 6 1 7 0;
#X connect 6 1 10 0;
#X connect 9 0 2 0;
#X connect 10 0 3 0;
#X connect 11 0 0 0;
#X connect 12 0 1 0;
#X connect 13 0 5 0;
#X connect 14 0 4 0;
#X restore 85 320 pd sigSel;
#X obj 410 251 tgl 15 0 empty empty empty 17 7 0 10 -262144 -1 -1 0
1;
#X obj 394 273 sel 0;
#X obj 152 274 +~ 1;
#X obj 411 62 inlet;
#X obj 27 28 inlet;
#X text 409 42 invert;
#X text 25 12 frequency;
#X text 64 62 scaling;
#X text 222 180 smooth to avoid clicks;
#X text 194 250 invert;
#X text 232 150 ctrl sig. has to be 0..1;
#X text 187 273 offset to 0..1;
#X obj 84 345 outlet~;
#X text 18 113 turn lfo off if;
#X text 18 127 the knob reads 0;
#X obj 158 180 lop~ 300;
#X floatatom 134 44 5 0 0 0 - - -;
#X connect 0 0 4 0;
#X connect 1 0 2 0;
#X connect 1 0 0 0;
#X connect 2 0 7 2;
#X connect 2 1 7 3;
#X connect 3 0 7 0;
#X connect 4 0 5 0;
#X connect 5 0 24 0;
#X connect 6 0 11 0;
#X connect 7 0 8 0;
#X connect 7 0 6 0;
#X connect 8 0 21 0;
#X connect 9 0 10 0;
#X connect 10 0 8 2;
#X connect 10 1 8 3;
#X connect 11 0 8 1;
#X connect 12 0 9 0;
#X connect 13 0 1 0;
#X connect 13 0 25 0;
#X connect 24 0 7 1;
#X restore 246 163 pd sqrLfo;
#X obj 421 187 *~;
#N canvas 0 22 450 300 sqrOsc 0;
#X obj 140 38 inlet;
#X text 138 20 frequency;
#X obj 141 242 clip~ -1 1;
#X obj 140 91 *;
#X obj 141 211 *~ 5;
#X obj 141 113 * 1000;
#X obj 141 134 + 10;
#X text 174 90 exponential response;
#X text 193 113 scaling;
#X text 183 134 offset;
#X obj 141 278 outlet~;
#X obj 141 181 osc~ 440;
#X connect 0 0 3 0;
#X connect 0 0 3 1;
#X connect 2 0 10 0;
#X connect 3 0 5 0;
#X connect 4 0 2 0;
#X connect 5 0 6 0;
#X connect 6 0 11 0;
#X connect 11 0 4 0;
#X restore 420 105 pd sqrOsc;
#N canvas 87 136 479 367 sqrLfo 0;
#X obj 158 110 osc~;
#X obj 27 62 * 25;
#X obj 57 151 sel 0;
#X obj 12 183 sig~ 1;
#X obj 158 130 *~ 1e+09;
#X obj 158 150 clip~ 0 1;
#X obj 152 250 *~ -1;
#N canvas 184 376 262 240 sigSel 0;
#X obj 66 163 *~;
#X obj 156 165 *~;
#X obj 84 144 lop~ 10;
#X obj 174 146 lop~ 10;
#X msg 144 69 0 1;
#X msg 108 69 1 0;
#X obj 108 90 unpack f f;
#X obj 178 121 tgl 15 0 empty empty empty 17 7 0 10 -262144 -1 -1 0
1;
#X obj 160 121 tgl 15 0 empty empty empty 17 7 0 10 -262144 -1 -1 0
1;
#X obj 105 121 sig~ 1;
#X obj 202 122 sig~ 0;
#X obj 13 29 inlet~;
#X obj 65 29 inlet~;
#X obj 124 29 inlet;
#X obj 173 29 inlet;
#X text 9 9 sig1;
#X text 62 9 sig2;
#X text 120 8 sel1;
#X text 172 8 sel2;
#X obj 98 205 outlet~;
#X connect 0 0 19 0;
#X connect 1 0 19 0;
#X connect 2 0 0 1;
#X connect 3 0 1 1;
#X connect 4 0 6 0;
#X connect 5 0 6 0;
#X connect 6 0 8 0;
#X connect 6 0 9 0;
#X connect 6 1 7 0;
#X connect 6 1 10 0;
#X connect 9 0 2 0;
#X connect 10 0 3 0;
#X connect 11 0 0 0;
#X connect 12 0 1 0;
#X connect 13 0 5 0;
#X connect 14 0 4 0;
#X restore 65 221 pd sigSel;
#N canvas 184 376 262 240 sigSel 0;
#X obj 66 163 *~;
#X obj 156 165 *~;
#X obj 84 144 lop~ 10;
#X obj 174 146 lop~ 10;
#X msg 144 69 0 1;
#X msg 108 69 1 0;
#X obj 108 90 unpack f f;
#X obj 178 121 tgl 15 0 empty empty empty 17 7 0 10 -262144 -1 -1 0
1;
#X obj 160 121 tgl 15 0 empty empty empty 17 7 0 10 -262144 -1 -1 0
1;
#X obj 105 121 sig~ 1;
#X obj 202 122 sig~ 0;
#X obj 13 29 inlet~;
#X obj 65 29 inlet~;
#X obj 124 29 inlet;
#X obj 173 29 inlet;
#X text 9 9 sig1;
#X text 62 9 sig2;
#X text 120 8 sel1;
#X text 172 8 sel2;
#X obj 98 205 outlet~;
#X connect 0 0 19 0;
#X connect 1 0 19 0;
#X connect 2 0 0 1;
#X connect 3 0 1 1;
#X connect 4 0 6 0;
#X connect 5 0 6 0;
#X connect 6 0 8 0;
#X connect 6 0 9 0;
#X connect 6 1 7 0;
#X connect 6 1 10 0;
#X connect 9 0 2 0;
#X connect 10 0 3 0;
#X connect 11 0 0 0;
#X connect 12 0 1 0;
#X connect 13 0 5 0;
#X connect 14 0 4 0;
#X restore 85 320 pd sigSel;
#X obj 410 251 tgl 15 0 empty empty empty 17 7 0 10 -262144 -1 -1 0
1;
#X obj 394 273 sel 0;
#X obj 152 274 +~ 1;
#X obj 411 62 inlet;
#X obj 27 28 inlet;
#X text 409 42 invert;
#X text 25 12 frequency;
#X text 64 62 scaling;
#X text 222 180 smooth to avoid clicks;
#X text 194 250 invert;
#X text 232 150 ctrl sig. has to be 0..1;
#X text 187 273 offset to 0..1;
#X obj 84 345 outlet~;
#X text 18 113 turn lfo off if;
#X text 18 127 the knob reads 0;
#X obj 158 180 lop~ 300;
#X floatatom 134 44 5 0 0 0 - - -;
#X connect 0 0 4 0;
#X connect 1 0 2 0;
#X connect 1 0 0 0;
#X connect 2 0 7 2;
#X connect 2 1 7 3;
#X connect 3 0 7 0;
#X connect 4 0 5 0;
#X connect 5 0 24 0;
#X connect 6 0 11 0;
#X connect 7 0 8 0;
#X connect 7 0 6 0;
#X connect 8 0 21 0;
#X connect 9 0 10 0;
#X connect 10 0 8 2;
#X connect 10 1 8 3;
#X connect 11 0 8 1;
#X connect 12 0 9 0;
#X connect 13 0 1 0;
#X connect 13 0 25 0;
#X connect 24 0 7 1;
#X restore 440 161 pd sqrLfo;
#X obj 616 188 *~;
#N canvas 0 22 450 300 sqrOsc 0;
#X obj 140 38 inlet;
#X text 138 20 frequency;
#X obj 141 242 clip~ -1 1;
#X obj 140 91 *;
#X obj 141 211 *~ 5;
#X obj 141 113 * 1000;
#X obj 141 134 + 10;
#X text 174 90 exponential response;
#X text 193 113 scaling;
#X text 183 134 offset;
#X obj 141 278 outlet~;
#X obj 141 181 osc~ 440;
#X connect 0 0 3 0;
#X connect 0 0 3 1;
#X connect 2 0 10 0;
#X connect 3 0 5 0;
#X connect 4 0 2 0;
#X connect 5 0 6 0;
#X connect 6 0 11 0;
#X connect 11 0 4 0;
#X restore 615 106 pd sqrOsc;
#N canvas 87 136 479 367 sqrLfo 0;
#X obj 158 110 osc~;
#X obj 27 62 * 25;
#X obj 57 151 sel 0;
#X obj 12 183 sig~ 1;
#X obj 158 130 *~ 1e+09;
#X obj 158 150 clip~ 0 1;
#X obj 152 250 *~ -1;
#N canvas 184 376 262 240 sigSel 0;
#X obj 66 163 *~;
#X obj 156 165 *~;
#X obj 84 144 lop~ 10;
#X obj 174 146 lop~ 10;
#X msg 144 69 0 1;
#X msg 108 69 1 0;
#X obj 108 90 unpack f f;
#X obj 178 121 tgl 15 0 empty empty empty 17 7 0 10 -262144 -1 -1 0
1;
#X obj 160 121 tgl 15 0 empty empty empty 17 7 0 10 -262144 -1 -1 0
1;
#X obj 105 121 sig~ 1;
#X obj 202 122 sig~ 0;
#X obj 13 29 inlet~;
#X obj 65 29 inlet~;
#X obj 124 29 inlet;
#X obj 173 29 inlet;
#X text 9 9 sig1;
#X text 62 9 sig2;
#X text 120 8 sel1;
#X text 172 8 sel2;
#X obj 98 205 outlet~;
#X connect 0 0 19 0;
#X connect 1 0 19 0;
#X connect 2 0 0 1;
#X connect 3 0 1 1;
#X connect 4 0 6 0;
#X connect 5 0 6 0;
#X connect 6 0 8 0;
#X connect 6 0 9 0;
#X connect 6 1 7 0;
#X connect 6 1 10 0;
#X connect 9 0 2 0;
#X connect 10 0 3 0;
#X connect 11 0 0 0;
#X connect 12 0 1 0;
#X connect 13 0 5 0;
#X connect 14 0 4 0;
#X restore 65 221 pd sigSel;
#N canvas 184 376 262 240 sigSel 0;
#X obj 66 163 *~;
#X obj 156 165 *~;
#X obj 84 144 lop~ 10;
#X obj 174 146 lop~ 10;
#X msg 144 69 0 1;
#X msg 108 69 1 0;
#X obj 108 90 unpack f f;
#X obj 178 121 tgl 15 0 empty empty empty 17 7 0 10 -262144 -1 -1 0
1;
#X obj 160 121 tgl 15 0 empty empty empty 17 7 0 10 -262144 -1 -1 0
1;
#X obj 105 121 sig~ 1;
#X obj 202 122 sig~ 0;
#X obj 13 29 inlet~;
#X obj 65 29 inlet~;
#X obj 124 29 inlet;
#X obj 173 29 inlet;
#X text 9 9 sig1;
#X text 62 9 sig2;
#X text 120 8 sel1;
#X text 172 8 sel2;
#X obj 98 205 outlet~;
#X connect 0 0 19 0;
#X connect 1 0 19 0;
#X connect 2 0 0 1;
#X connect 3 0 1 1;
#X connect 4 0 6 0;
#X connect 5 0 6 0;
#X connect 6 0 8 0;
#X connect 6 0 9 0;
#X connect 6 1 7 0;
#X connect 6 1 10 0;
#X connect 9 0 2 0;
#X connect 10 0 3 0;
#X connect 11 0 0 0;
#X connect 12 0 1 0;
#X connect 13 0 5 0;
#X connect 14 0 4 0;
#X restore 85 320 pd sigSel;
#X obj 410 251 tgl 15 0 empty empty empty 17 7 0 10 -262144 -1 -1 0
1;
#X obj 394 273 sel 0;
#X obj 152 274 +~ 1;
#X obj 411 62 inlet;
#X obj 27 28 inlet;
#X text 409 42 invert;
#X text 25 12 frequency;
#X text 64 62 scaling;
#X text 222 180 smooth to avoid clicks;
#X text 194 250 invert;
#X text 232 150 ctrl sig. has to be 0..1;
#X text 187 273 offset to 0..1;
#X obj 84 345 outlet~;
#X text 18 113 turn lfo off if;
#X text 18 127 the knob reads 0;
#X obj 158 180 lop~ 300;
#X floatatom 134 44 5 0 0 0 - - -;
#X connect 0 0 4 0;
#X connect 1 0 2 0;
#X connect 1 0 0 0;
#X connect 2 0 7 2;
#X connect 2 1 7 3;
#X connect 3 0 7 0;
#X connect 4 0 5 0;
#X connect 5 0 24 0;
#X connect 6 0 11 0;
#X connect 7 0 8 0;
#X connect 7 0 6 0;
#X connect 8 0 21 0;
#X connect 9 0 10 0;
#X connect 10 0 8 2;
#X connect 10 1 8 3;
#X connect 11 0 8 1;
#X connect 12 0 9 0;
#X connect 13 0 1 0;
#X connect 13 0 25 0;
#X connect 24 0 7 1;
#X restore 635 162 pd sqrLfo;
#X obj 226 82 r osc2freq;
#X obj 247 135 r lfo2freq;
#X obj 330 135 r lfo2inv;
#X obj 420 80 r osc3freq;
#X obj 441 133 r lfo3freq;
#X obj 524 133 r lfo3inv;
#X obj 636 134 r lfo4freq;
#X obj 616 81 r osc4freq;
#X obj 719 134 r lfo4inv;
#X obj 233 519 metro 100;
#N canvas 0 22 528 373 mixer 0;
#X obj 58 48 inlet~;
#X obj 58 169 *~;
#X obj 81 83 r ch1lvl;
#X obj 81 135 lop~ 10;
#X obj 81 109 sig~ 0;
#X obj 153 47 inlet~;
#X obj 153 168 *~;
#X obj 176 134 lop~ 10;
#X obj 176 108 sig~ 0;
#X obj 257 49 inlet~;
#X obj 257 170 *~;
#X obj 280 136 lop~ 10;
#X obj 280 110 sig~ 0;
#X obj 352 48 inlet~;
#X obj 352 169 *~;
#X obj 375 135 lop~ 10;
#X obj 375 109 sig~ 0;
#X obj 176 82 r ch2lvl;
#X obj 280 84 r ch3lvl;
#X obj 375 83 r ch4lvl;
#X obj 221 349 outlet~;
#X obj 221 324 *~ 0.25;
#X connect 0 0 1 0;
#X connect 1 0 21 0;
#X connect 2 0 4 0;
#X connect 3 0 1 1;
#X connect 4 0 3 0;
#X connect 5 0 6 0;
#X connect 6 0 21 0;
#X connect 7 0 6 1;
#X connect 8 0 7 0;
#X connect 9 0 10 0;
#X connect 10 0 21 0;
#X connect 11 0 10 1;
#X connect 12 0 11 0;
#X connect 13 0 14 0;
#X connect 14 0 21 0;
#X connect 15 0 14 1;
#X connect 16 0 15 0;
#X connect 17 0 8 0;
#X connect 18 0 12 0;
#X connect 19 0 16 0;
#X connect 21 0 20 0;
#X restore 391 284 pd mixer;
#N canvas 88 122 438 548 filterbank 0;
#X obj -182 -182 inlet~;
#X obj -134 -131 *;
#X obj -134 -112 * 2000;
#X text -98 9 drive 0-1;
#X obj -79 -61 * 3.5;
#X obj -134 -87 + 100;
#X obj -136 -62 sig~;
#X obj -182 -35 moog~;
#X obj -292 114 sig~;
#X obj -292 71 *;
#X obj -292 90 * 2000;
#X obj 7 115 sig~;
#X obj 7 72 *;
#X obj 7 91 * 2000;
#X obj 7 33 r bp2freq;
#X obj -293 38 r bp1freq;
#X obj -157 10 r oddrive;
#X obj -79 -98 r lopq;
#X obj -134 -160 r lopfreq;
#X obj -101 30 loadbang;
#X msg -100 52 0;
#X text -77 52 offset -1..1;
#X obj -169 247 outlet~;
#X msg -179 133 440;
#X obj -178 107 loadbang;
#X obj -242 -139 loadbang;
#X msg -243 -113 2100;
#X obj -9 139 vcf~ 2;
#X obj -307 138 vcf~ 2;
#N canvas 0 22 473 590 overdrive 0;
#X obj 191 20 inlet~;
#X obj 309 20 inlet offset;
#X obj 235 20 inlet drive;
#X obj 285 68 clip 0 1;
#X msg 285 117 10 \$1;
#X obj 286 142 pow;
#X obj 285 94 * 2;
#X obj 214 238 *~;
#X obj 206 266 *~;
#X obj 190 337 -~;
#X obj 208 306 /~ 3;
#X obj 190 398 hip~ 5;
#X obj 192 513 outlet~;
#X obj 191 193 clip~ -1 1;
#X obj 190 418 hip~ 5;
#X obj 191 488 lop~;
#X obj 272 425 samplerate~;
#X obj 190 106 +~ 0.25;
#X text 403 548 slp@2009;
#X obj 272 400 loadbang;
#X obj 190 165 *~ 1;
#X obj 29 33 block~ 64 1 2;
#X obj 271 447 * 0.5;
#X text 20 530 http://puredata.hurleur.com/sujet-2453-cubic-soft-clip-distortion
;
#X connect 0 0 17 0;
#X connect 1 0 17 1;
#X connect 2 0 3 0;
#X connect 3 0 6 0;
#X connect 4 0 5 0;
#X connect 5 0 20 1;
#X connect 6 0 4 0;
#X connect 7 0 8 1;
#X connect 8 0 10 0;
#X connect 9 0 11 0;
#X connect 10 0 9 1;
#X connect 11 0 14 0;
#X connect 13 0 7 0;
#X connect 13 0 7 1;
#X connect 13 0 8 0;
#X connect 13 0 9 0;
#X connect 14 0 15 0;
#X connect 15 0 12 0;
#X connect 16 0 22 0;
#X connect 17 0 20 0;
#X connect 19 0 16 0;
#X connect 20 0 13 0;
#X connect 22 0 15 1;
#X restore -181 65 pd overdrive;
#X connect 0 0 7 0;
#X connect 1 0 2 0;
#X connect 2 0 5 0;
#X connect 4 0 7 2;
#X connect 5 0 6 0;
#X connect 6 0 7 1;
#X connect 7 0 29 0;
#X connect 8 0 28 1;
#X connect 9 0 10 0;
#X connect 10 0 8 0;
#X connect 11 0 27 1;
#X connect 12 0 13 0;
#X connect 13 0 11 0;
#X connect 14 0 12 0;
#X connect 14 0 12 1;
#X connect 15 0 9 0;
#X connect 15 0 9 1;
#X connect 16 0 29 1;
#X connect 17 0 4 0;
#X connect 18 0 1 0;
#X connect 18 0 1 1;
#X connect 19 0 20 0;
#X connect 20 0 7 2;
#X connect 20 0 29 2;
#X connect 20 0 29 1;
#X connect 23 0 8 0;
#X connect 23 0 11 0;
#X connect 24 0 23 0;
#X connect 25 0 26 0;
#X connect 26 0 6 0;
#X connect 27 0 22 0;
#X connect 28 0 22 0;
#X connect 29 0 22 0;
#X restore 392 331 pd filterbank;
#N canvas 340 170 552 513 output 0;
#X obj 13 111 hsl 42 23 0.01 1 1 0 \$0-v \$0-v volume 7 13 1 9 -245500
-13381 -1 0 0;
#X obj 57 98 tgl 18 0 THIS_IS_HERE_TO_GET_RID_OF_THE_OUTLET \$0-dsp-toggle
dsp 2 9 1 9 -262144 -195568 -33289 0 1;
#N canvas 366 514 482 356 dsp 0;
#X obj 11 7 inlet;
#X obj 92 226 select 0 1;
#X msg 125 248 6;
#X obj 92 57 route dsp;
#X obj 92 36 receive pd;
#X obj 206 138 loadbang;
#X msg 11 220 dsp \$1;
#X obj 11 245 send pd;
#X msg 206 278 set \$1;
#X obj 206 174 value GLOBAL_PDDP_DSP;
#X msg 109 278 color \$1 20 12;
#X obj 180 309 send \$0-dsp-toggle;
#X obj 92 115 change;
#X msg 92 247 0;
#X connect 0 0 6 0;
#X connect 0 0 12 0;
#X connect 1 0 13 0;
#X connect 1 1 2 0;
#X connect 2 0 10 0;
#X connect 3 0 12 0;
#X connect 4 0 3 0;
#X connect 5 0 9 0;
#X connect 6 0 7 0;
#X connect 8 0 11 0;
#X connect 9 0 8 0;
#X connect 9 0 1 0;
#X connect 10 0 11 0;
#X connect 12 0 8 0;
#X connect 12 0 1 0;
#X connect 12 0 9 0;
#X connect 13 0 10 0;
#X restore 112 132 pd dsp logic;
#X obj 315 16 inlet;
#X obj 57 116 bng 18 1000 50 0 THIS_IS_HERE_TO_GET_RID_OF_THE_OUTLET
\$0-MUTE_TOGGLE empty 0 9 2 8 -262144 -258699 -195568;
#X obj 191 16 inlet~;
#X obj 86 287 line~;
#X obj 186 347 *~;
#X obj 206 377 dac~;
#X text 203 36 audio in;
#X obj 254 16 inlet~;
#X obj 248 346 *~;
#X obj 201 87 hip~ 3;
#X obj 263 87 hip~ 3;
#X obj 12 302 send pd;
#X msg 12 281 dsp 1;
#X obj 248 376 outlet~;
#X obj 148 376 outlet~;
#X obj 330 376 outlet;
#N canvas 679 297 361 328 mute 0;
#X obj 23 20 inlet;
#X obj 173 20 inlet;
#X obj 222 208 float;
#X obj 265 121 tgl 15 1 empty empty empty 17 7 0 10 -262144 -1 -1 1
1;
#X obj 222 162 spigot;
#X obj 172 41 trigger bang bang;
#X obj 254 263 outlet;
#X msg 274 208 0;
#X obj 274 163 select 0;
#X obj 127 64 bang;
#X msg 127 85 set 1;
#X obj 65 304 send \$0-MUTE_TOGGLE;
#X msg 65 283 color \$1 13 20;
#X obj 65 235 bang;
#X msg 65 255 0;
#X msg 98 255 3;
#X connect 0 0 2 1;
#X connect 0 0 9 0;
#X connect 1 0 5 0;
#X connect 2 0 6 0;
#X connect 2 0 13 0;
#X connect 3 0 4 1;
#X connect 3 0 8 0;
#X connect 4 0 2 0;
#X connect 5 0 4 0;
#X connect 5 1 3 0;
#X connect 7 0 6 0;
#X connect 8 0 7 0;
#X connect 8 0 15 0;
#X connect 9 0 10 0;
#X connect 9 0 13 0;
#X connect 10 0 3 0;
#X connect 12 0 11 0;
#X connect 13 0 14 0;
#X connect 14 0 12 0;
#X connect 15 0 12 0;
#X restore 86 160 pd mute;
#X obj 86 266 pack 0 50;
#X text 153 265 <-- make a ramp to avoid clicks or zipper noise;
#X msg 86 231 0;
#X obj 86 208 moses 0.011;
#X text 307 88 filter out DC;
#X connect 0 0 15 0;
#X connect 0 0 19 0;
#X connect 0 0 18 0;
#X connect 0 0 23 0;
#X connect 1 0 2 0;
#X connect 3 0 0 0;
#X connect 4 0 19 1;
#X connect 5 0 12 0;
#X connect 6 0 11 0;
#X connect 6 0 7 0;
#X connect 7 0 8 0;
#X connect 7 0 17 0;
#X connect 10 0 13 0;
#X connect 11 0 8 1;
#X connect 11 0 16 0;
#X connect 12 0 7 1;
#X connect 13 0 11 1;
#X connect 15 0 14 0;
#X connect 19 0 0 0;
#X connect 19 0 23 0;
#X connect 20 0 6 0;
#X connect 22 0 20 0;
#X connect 23 0 22 0;
#X connect 23 1 20 0;
#X coords 0 -1 1 1 65 44 1 10 90;
#X restore 392 384 pd output;
#X obj 392 357 clip~ -0.9 0.9;
#X obj 560 356 r recCtrl;
#X msg 628 356 open droneLab.wav;
#N canvas 468 326 316 207 record 1;
#X obj 85 157 writesf~ 2;
#X obj 112 49 tgl 15 0 empty empty empty 17 7 0 10 -262144 -1 -1 0
1;
#X obj 112 73 sel 1;
#X msg 88 102 start;
#X msg 142 102 stop;
#X obj 22 113 inlet~;
#X obj 112 21 inlet;
#X obj 207 105 inlet;
#X text 39 39 comment;
#X connect 1 0 2 0;
#X connect 2 0 3 0;
#X connect 2 1 4 0;
#X connect 3 0 0 0;
#X connect 4 0 0 0;
#X connect 5 0 0 0;
#X connect 5 0 0 1;
#X connect 6 0 1 0;
#X connect 7 0 0 0;
#X restore 568 384 pd record;
#X text 29 584 petterniklas.wordpress.com;
#X text 31 611 Overdrive patch from http://puredata.hurleur.com/sujet-2453-cubic-soft-clip-distortion
;
#X connect 0 0 33 0;
#X connect 4 0 2 0;
#X connect 4 1 1 0;
#X connect 4 2 3 0;
#X connect 6 0 32 0;
#X connect 8 0 0 0;
#X connect 9 0 0 1;
#X connect 10 0 8 0;
#X connect 11 0 9 0;
#X connect 13 0 9 1;
#X connect 14 0 33 1;
#X connect 15 0 14 0;
#X connect 16 0 14 1;
#X connect 17 0 33 2;
#X connect 18 0 17 0;
#X connect 19 0 17 1;
#X connect 20 0 33 3;
#X connect 21 0 20 0;
#X connect 22 0 20 1;
#X connect 23 0 15 0;
#X connect 24 0 16 0;
#X connect 25 0 16 1;
#X connect 26 0 18 0;
#X connect 27 0 19 0;
#X connect 28 0 19 1;
#X connect 29 0 22 0;
#X connect 30 0 21 0;
#X connect 31 0 22 1;
#X connect 32 0 7 0;
#X connect 33 0 34 0;
#X connect 34 0 36 0;
#X connect 36 0 35 0;
#X connect 36 0 35 1;
#X connect 36 0 39 0;
#X connect 36 0 7 0;
#X connect 37 0 39 1;
#X connect 38 0 39 2;
